bicep_curl
version=1
nRows=17
nColumns=17
inDegrees=yes

# SIMM Motion File Header:
name bicep_curl
datacolumns 17
datarows 17
otherdata 1
range 0.80853026 0.82284490
endheader
time	/jointset/r_shoulder/r_shoulder_elev/value	/jointset/r_shoulder/r_shoulder_elev/speed	/jointset/r_elbow/r_elbow_flex/value	/jointset/r_elbow/r_elbow_flex/speed	/forceset/TRIlong/activation	/forceset/TRIlong/fiber_length	/forceset/TRIlat/activation	/forceset/TRIlat/fiber_length	/forceset/TRImed/activation	/forceset/TRImed/fiber_length	/forceset/BIClong/activation	/forceset/BIClong/fiber_length	/forceset/BICshort/activation	/forceset/BICshort/fiber_length	/forceset/BRA/activation	/forceset/BRA/fiber_length
0.80853026	      0.34951004	     19.41015218	   -126.41705035	   -160.25421313	      0.01195525	      0.16918798	     -1.82880347	      0.10364881	    303.60073154	      0.09573413	      0.39352215	      0.09250706	      0.06408418	      0.09307304	     27.35955261	      0.04693321
0.80932999	      0.36510759	     19.59654436	   -126.54519982	   -160.22752170	      0.01193905	      0.16923287	     -1.83089418	      0.10368469	    303.89185342	      0.09576991	      0.39399740	      0.09238958	      0.06407576	      0.09296173	     27.39741404	      0.04688918
0.81045017	      0.38720441	     19.85548490	   -126.72466351	   -160.19281948	      0.01191664	      0.16929431	     -1.83382262	      0.10373485	    304.29962649	      0.09581993	      0.39460669	      0.09222505	      0.06406414	      0.09280579	     27.45044637	      0.04682764
0.81140356	      0.40623822	     20.07251022	   -126.87737582	   -160.16387214	      0.01189782	      0.16934865	     -1.83631503	      0.10377745	    304.64668370	      0.09586241	      0.39507787	      0.09208507	      0.06405440	      0.09267305	     27.49558239	      0.04677539
0.81235694	      0.42547793	     20.28820053	   -127.03006127	   -160.13738624	      0.01187923	      0.16939985	     -1.83880744	      0.10381997	    304.99374090	      0.09590481	      0.39550942	      0.09194514	      0.06404480	      0.09254030	     27.54071840	      0.04672325
0.81320974	      0.44286069	     20.47757070	   -127.16661569	   -160.11266624	      0.01186280	      0.16944900	     -1.84103688	      0.10385793	    305.30418062	      0.09594266	      0.39586461	      0.09182003	      0.06403633	      0.09242153	     27.58109219	      0.04667672
0.81406254	      0.46040425	     20.66577397	   -127.30314946	   -160.08945867	      0.01184655	      0.16949515	     -1.84326632	      0.10389582	    305.61462033	      0.09598045	      0.39619301	      0.09169499	      0.06402796	      0.09230275	     27.62146597	      0.04663029
0.81491534	      0.47810710	     20.85075145	   -127.43966314	   -160.06512531	      0.01183048	      0.16954352	     -1.84549576	      0.10393364	    305.92506005	      0.09601817	      0.39649665	      0.09157000	      0.06401970	      0.09218395	     27.66183975	      0.04658395
0.81594018	      0.49958858	     21.07062161	   -127.60368973	   -160.03637127	      0.01181140	      0.16959940	     -1.84817497	      0.10397901	    306.29812820	      0.09606342	      0.39683146	      0.09141990	      0.06400991	      0.09204117	     27.71035858	      0.04652839
0.81678304	      0.51742297	     21.24765663	   -127.73856661	   -160.01078337	      0.01179590	      0.16964799	     -1.85037842	      0.10401625	    306.60494846	      0.09610056	      0.39708417	      0.09129652	      0.06400197	      0.09192373	     27.75026164	      0.04648279
0.81762589	      0.53540570	     21.42306560	   -127.87342181	   -159.98541929	      0.01178057	      0.16969376	     -1.85258187	      0.10405343	    306.91176871	      0.09613764	      0.39731810	      0.09117320	      0.06399413	      0.09180628	     27.79016470	      0.04643729
0.81846875	      0.55353492	     21.59490376	   -128.00825488	   -159.95782959	      0.01176540	      0.16974171	     -1.85478531	      0.10409053	    307.21858897	      0.09617466	      0.39753464	      0.09104996	      0.06398639	      0.09168882	     27.83006776	      0.04639189
0.81931160	      0.57180791	     21.76447551	   -128.14306423	   -159.92942128	      0.01175040	      0.16978806	     -1.85698876	      0.10412758	    307.52540922	      0.09621161	      0.39773510	      0.09092678	      0.06397874	      0.09157134	     27.86997082	      0.04634658
0.82000000	      0.58683747	     21.90043441	   -128.25315100	   -159.90451339	      0.01173827	      0.16982687	     -1.85878842	      0.10415778	    307.77600364	      0.09624174	      0.39788774	      0.09082622	      0.06397257	      0.09147539	     27.90256151	      0.04630964
0.82145373	      0.61887815	     22.17922680	   -128.48555489	   -159.83105256	      0.01170813	      0.16990696	     -1.86258781	      0.10422142	    308.30597623	      0.09630523	      0.39954146	      0.09061333	      0.06395140	      0.09127276	     27.97242584	      0.04623185
0.82214931	      0.63435103	     22.30903106	   -128.59671875	   -159.79422532	      0.01169391	      0.16994738	     -1.86440577	      0.10425179	    308.55956093	      0.09633554	      0.40025746	      0.09051113	      0.06394144	      0.09117581	     28.00585498	      0.04619474
0.82284490	      0.64991381	     22.43777560	   -128.70785721	   -159.75812953	      0.01167982	      0.16998588	     -1.86622373	      0.10428212	    308.81314563	      0.09636581	      0.40092896	      0.09040877	      0.06393158	      0.09107886	     28.03928412	      0.04615769
